<?xml version="1.0" standalone="no"?>
<!DOCTYPE svg PUBLIC "-//W3C//DTD SVG 20010904//EN"
 "http://www.w3.org/TR/2001/REC-SVG-20010904/DTD/svg10.dtd">
<svg version="1.0" xmlns="http://www.w3.org/2000/svg"
 width="1122.000000pt" height="1280.000000pt" viewBox="0 0 1122.000000 1280.000000"
 preserveAspectRatio="xMidYMid meet">

<g transform="translate(0.000000,1280.000000) scale(0.100000,-0.100000)"
fill="#000000" stroke="none">
<path d="M6157 12328 c-6 -427 -19 -3337 -32 -7193 -3 -792 -8 -1535 -11
-1651 l-6 -211 -82 49 c-410 249 -932 400 -1566 454 -169 14 -679 20 -792 9
-29 -3 -109 -10 -178 -15 -282 -24 -611 -77 -899 -146 -859 -204 -1603 -579
-2072 -1044 -191 -190 -308 -349 -398 -543 -89 -190 -116 -311 -115 -507 1
-163 20 -263 80 -403 121 -289 400 -554 782 -746 372 -187 798 -300 1342 -358
229 -24 783 -24 1030 0 421 42 884 129 1210 229 729 223 1254 484 1690 839
137 112 338 321 422 439 106 148 197 336 226 465 8 35 15 660 22 2150 5 1155
13 2569 16 3142 l7 1043 51 19 c205 75 506 72 854 -10 501 -118 1116 -412
1627 -777 404 -289 698 -573 882 -854 74 -113 107 -181 157 -333 21 -60 77
-193 126 -295 115 -242 134 -303 128 -423 -11 -227 -162 -451 -596 -887 l-245
-245 12 -107 c25 -232 122 -422 278 -540 113 -85 235 -112 303 -65 81 54 400
652 543 1017 128 327 201 593 244 897 21 149 24 518 5 648 -48 325 -139 596
-293 868 -89 158 -233 369 -303 444 -68 73 -316 307 -656 618 -756 692 -1215
1145 -1592 1567 -422 475 -649 786 -1303 1791 -293 450 -446 663 -630 877
-122 143 -235 260 -250 260 -10 0 -14 -105 -18 -472z"/>
</g>
</svg>
