<?xml version="1.0" standalone="no"?>
<!DOCTYPE svg PUBLIC "-//W3C//DTD SVG 20010904//EN"
 "http://www.w3.org/TR/2001/REC-SVG-20010904/DTD/svg10.dtd">
<svg version="1.0" xmlns="http://www.w3.org/2000/svg"
 width="910.000000pt" height="1280.000000pt" viewBox="0 0 910.000000 1280.000000"
 preserveAspectRatio="xMidYMid meet">

<g transform="translate(0.000000,1280.000000) scale(0.100000,-0.100000)"
fill="#000000" stroke="none">
<path d="M5519 7883 c-1 -2705 -1 -4921 0 -4926 2 -13 -10 -8 -83 37 -317 198
-778 339 -1316 403 -204 24 -811 24 -1025 -1 -453 -51 -829 -130 -1195 -252
-1027 -342 -1731 -924 -1876 -1550 -23 -96 -25 -311 -5 -394 89 -370 340 -647
786 -866 338 -166 693 -259 1205 -316 172 -19 744 -16 939 5 479 52 871 136
1281 273 874 294 1550 774 1803 1279 25 50 56 126 70 171 l26 81 11 2734 c8
1670 16 2738 22 2744 5 6 68 10 151 9 124 -1 153 -4 232 -28 527 -159 1157
-670 1546 -1255 49 -73 93 -150 98 -170 4 -20 18 -75 30 -124 25 -105 65 -195
115 -260 25 -33 41 -69 52 -115 9 -37 44 -155 79 -262 90 -279 99 -361 58
-528 -49 -203 -163 -403 -499 -878 l-36 -52 12 -113 c21 -196 71 -345 155
-460 70 -94 179 -138 233 -92 40 34 233 547 322 854 145 499 200 852 201 1274
0 289 -27 522 -90 763 -18 67 -18 78 -5 115 31 87 114 367 143 482 55 220 85
385 118 640 21 167 24 606 5 750 -32 238 -86 475 -149 648 -24 66 -24 70 -9
135 76 336 106 596 107 911 0 430 -59 751 -208 1131 -86 217 -156 347 -237
440 -324 371 -1294 998 -2111 1364 -335 151 -712 279 -912 311 l-43 7 -1
-4919z m1741 3192 c278 -35 495 -129 698 -304 237 -204 459 -591 545 -951 14
-58 52 -188 85 -290 66 -204 87 -312 77 -394 l-7 -54 -61 71 c-126 149 -439
444 -752 709 -384 326 -1165 913 -1417 1067 -21 12 -38 26 -38 30 0 11 190 65
316 90 201 41 374 49 554 26z m-375 -2195 c527 -79 948 -228 1235 -438 78 -56
150 -121 150 -133 0 -4 -35 -56 -78 -116 l-78 -109 8 -104 c9 -127 29 -220 69
-318 66 -166 171 -272 268 -272 42 0 68 33 111 139 l38 93 46 -139 c54 -163
76 -262 76 -343 0 -131 -58 -313 -156 -487 l-35 -63 -46 68 c-69 101 -180 233
-498 592 -553 625 -828 970 -1102 1380 -141 211 -175 270 -156 270 10 0 77 -9
148 -20z"/>
</g>
</svg>
