<?xml version="1.0" standalone="no"?>
<!DOCTYPE svg PUBLIC "-//W3C//DTD SVG 20010904//EN"
 "http://www.w3.org/TR/2001/REC-SVG-20010904/DTD/svg10.dtd">
<svg version="1.0" xmlns="http://www.w3.org/2000/svg"
 width="752.000000pt" height="1280.000000pt" viewBox="0 0 752.000000 1280.000000"
 preserveAspectRatio="xMidYMid meet">

<g transform="translate(0.000000,1280.000000) scale(0.100000,-0.100000)"
fill="#000000" stroke="none">
<path d="M3731 12758 c-39 -89 -88 -384 -116 -703 -19 -206 -20 -456 -5 -1085
5 -239 14 -655 20 -925 6 -269 15 -692 21 -940 14 -573 14 -871 -1 -2734 l-12
-1526 -53 -738 c-28 -405 -54 -739 -57 -742 -3 -3 -85 0 -184 6 -589 37 -1314
-64 -1838 -257 -165 -61 -400 -178 -528 -264 -651 -434 -1057 -1208 -964
-1838 75 -503 428 -871 937 -976 457 -93 1028 7 1560 274 260 130 477 281 663
460 251 242 355 419 476 812 237 769 382 1982 454 3808 32 789 41 1144 66
2655 24 1457 47 2302 66 2483 l5 52 57 -72 c142 -184 541 -722 663 -893 1007
-1415 1539 -2549 1660 -3535 17 -138 17 -518 0 -640 -63 -460 -233 -820 -548
-1162 -49 -52 -160 -162 -248 -243 -154 -143 -225 -212 -225 -220 0 -2 20 -11
45 -20 147 -57 365 68 645 370 354 381 580 722 822 1238 265 567 388 1037 405
1542 26 787 -255 1530 -883 2335 -232 298 -461 551 -989 1094 -830 853 -1032
1093 -1317 1564 -151 249 -243 458 -302 683 -23 85 -43 140 -56 154 -17 17
-36 21 -120 23 l-100 4 -19 -44z"/>
</g>
</svg>
