<svg version="1.0" xmlns="http://www.w3.org/2000/svg" width="1496" height="1706.667" viewBox="0 0 1122 1280"><path d="M615.7 47.2c-.6 42.7-1.9 333.7-3.2 719.3-.3 79.2-.8 153.5-1.1 165.1l-.6 21.1-8.2-4.9c-41-24.9-93.2-40-156.6-45.4-16.9-1.4-67.9-2-79.2-.9-2.9.3-10.9 1-17.8 1.5-28.2 2.4-61.1 7.7-89.9 14.6C173.2 938 98.8 975.5 51.9 1022c-19.1 19-30.8 34.9-39.8 54.3-8.9 19-11.6 31.1-11.5 50.7.1 16.3 2 26.3 8 40.3 12.1 28.9 40 55.4 78.2 74.6 37.2 18.7 79.8 30 134.2 35.8 22.9 2.4 78.3 2.4 103 0 42.1-4.2 88.4-12.9 121-22.9 72.9-22.3 125.4-48.4 169-83.9 13.7-11.2 33.8-32.1 42.2-43.9 10.6-14.8 19.7-33.6 22.6-46.5.8-3.5 1.5-66 2.2-215 .5-115.5 1.3-256.9 1.6-314.2l.7-104.3 5.1-1.9c20.5-7.5 50.6-7.2 85.4 1 50.1 11.8 111.6 41.2 162.7 77.7 40.4 28.9 69.8 57.3 88.2 85.4 7.4 11.3 10.7 18.1 15.7 33.3 2.1 6 7.7 19.3 12.6 29.5 11.5 24.2 13.4 30.3 12.8 42.3-1.1 22.7-16.2 45.1-59.6 88.7l-24.5 24.5 1.2 10.7c2.5 23.2 12.2 42.2 27.8 54 11.3 8.5 23.5 11.2 30.3 6.5 8.1-5.4 40-65.2 54.3-101.7 12.8-32.7 20.1-59.3 24.4-89.7 2.1-14.9 2.4-51.8.5-64.8-4.8-32.5-13.9-59.6-29.3-86.8-8.9-15.8-23.3-36.9-30.3-44.4-6.8-7.3-31.6-30.7-65.6-61.8-75.6-69.2-121.5-114.5-159.2-156.7-42.2-47.5-64.9-78.6-130.3-179.1-29.3-45-44.6-66.3-63-87.7-12.2-14.3-23.5-26-25-26-1 0-1.4 10.5-1.8 47.2z"/></svg>