<?xml version="1.0" standalone="no"?>
<!DOCTYPE svg PUBLIC "-//W3C//DTD SVG 20010904//EN"
 "http://www.w3.org/TR/2001/REC-SVG-20010904/DTD/svg10.dtd">
<svg version="1.0" xmlns="http://www.w3.org/2000/svg"
 width="640.000000pt" height="1280.000000pt" viewBox="0 0 640.000000 1280.000000"
 preserveAspectRatio="xMidYMid meet">

<g transform="translate(0.000000,1280.000000) scale(0.100000,-0.100000)"
fill="#000000" stroke="none">
<path d="M3617 12775 c-71 -29 -205 -117 -293 -192 -293 -249 -535 -732 -648
-1295 -50 -249 -58 -304 -81 -563 -44 -490 23 -1152 181 -1769 l25 -98 -68
-72 c-37 -39 -188 -195 -334 -346 -439 -453 -610 -655 -867 -1020 -263 -375
-464 -797 -562 -1180 -71 -276 -100 -557 -81 -793 53 -692 339 -1315 826
-1800 322 -320 749 -562 1170 -662 308 -74 663 -84 984 -29 46 8 87 14 92 14
4 0 10 -15 14 -32 4 -18 47 -202 95 -408 96 -405 140 -614 161 -755 20 -134
17 -485 -5 -603 -22 -124 -77 -273 -123 -341 -154 -224 -440 -384 -754 -421
-166 -19 -347 15 -463 87 l-48 30 74 17 c148 33 297 126 392 245 69 86 99 139
132 236 26 74 28 92 28 235 1 170 -9 225 -66 355 -125 286 -406 478 -698 478
-227 -1 -438 -109 -597 -303 -59 -73 -152 -251 -182 -350 -37 -120 -54 -247
-47 -350 18 -270 131 -510 327 -695 393 -372 1022 -495 1563 -308 464 161 777
509 878 976 18 87 22 133 21 312 0 282 -21 418 -164 1080 -61 280 -139 659
-136 661 1 0 49 23 107 49 404 187 666 443 855 838 73 153 114 276 152 455 24
118 26 145 27 377 0 217 -2 265 -22 365 -44 233 -121 466 -208 630 -248 467
-641 773 -1114 870 -108 22 -292 31 -450 20 l-74 -5 -52 255 c-29 140 -80 388
-114 550 l-60 294 83 86 c396 405 683 880 872 1445 146 436 215 851 215 1300
0 574 -111 1082 -336 1540 -86 177 -185 336 -279 452 -126 156 -218 192 -348
138z m339 -1259 c53 -24 94 -68 114 -121 24 -61 50 -240 50 -342 0 -489 -315
-1173 -791 -1718 -95 -109 -183 -190 -198 -181 -13 8 -56 197 -77 336 -54 350
4 825 157 1284 57 172 176 426 240 512 158 216 349 302 505 230z m-862 -4163
c49 -257 135 -697 141 -720 5 -20 -4 -27 -67 -59 -303 -152 -576 -431 -739
-756 -135 -268 -206 -607 -180 -853 37 -341 163 -607 401 -845 156 -156 336
-267 544 -334 93 -31 127 -32 181 -7 60 28 80 55 79 110 -1 77 -25 104 -140
161 -187 91 -288 191 -379 372 -83 166 -100 229 -99 378 0 171 33 285 122 425
91 141 265 303 403 375 69 36 78 38 83 23 3 -10 84 -418 181 -908 97 -489 196
-991 221 -1114 24 -123 43 -225 42 -227 -5 -4 -215 -44 -323 -60 -309 -47
-712 22 -1032 178 -188 91 -329 195 -489 359 -230 237 -381 524 -449 852 -95
457 29 1038 325 1522 97 158 278 398 464 615 156 181 646 660 676 660 3 0 19
-66 34 -147z m863 -1678 c456 -87 794 -457 881 -966 14 -85 15 -115 4 -241
-32 -379 -151 -643 -374 -832 -66 -55 -185 -132 -193 -124 -2 2 -13 49 -24
104 -11 54 -65 322 -121 594 -55 272 -132 648 -170 835 -38 187 -82 407 -99
489 -17 82 -31 150 -31 152 0 8 50 4 127 -11z"/>
</g>
</svg>
