<?xml version="1.0" standalone="no"?>
<!DOCTYPE svg PUBLIC "-//W3C//DTD SVG 20010904//EN"
 "http://www.w3.org/TR/2001/REC-SVG-20010904/DTD/svg10.dtd">
<svg version="1.0" xmlns="http://www.w3.org/2000/svg"
 width="977.000000pt" height="1280.000000pt" viewBox="0 0 977.000000 1280.000000"
 preserveAspectRatio="xMidYMid meet">

<g transform="translate(0.000000,1280.000000) scale(0.100000,-0.100000)"
fill="#000000" stroke="none">
<path d="M4853 12783 c-18 -9 -33 -24 -33 -33 0 -9 11 -88 25 -176 61 -399 79
-717 72 -1289 -9 -754 -49 -1105 -228 -2015 -111 -568 -274 -1250 -443 -1861
-324 -1169 -464 -1547 -1126 -3054 -200 -456 -258 -568 -318 -612 -44 -32
-101 -43 -146 -28 -87 30 -152 95 -316 315 -134 180 -172 222 -247 278 -342
252 -674 309 -1043 180 -458 -161 -768 -499 -954 -1040 -155 -451 -118 -1001
99 -1456 192 -403 482 -628 895 -697 140 -24 377 -16 500 15 356 93 735 395
997 795 73 112 299 548 388 750 83 187 298 723 485 1210 79 204 228 584 332
845 505 1265 700 1899 1062 3455 235 1014 403 2007 431 2545 3 63 8 142 11
176 l5 60 227 -53 c864 -201 1358 -266 2037 -266 421 0 554 11 1262 108 319
44 505 66 511 60 3 -2 4 -114 4 -247 -1 -657 -146 -1877 -351 -2966 -211
-1115 -812 -3203 -1211 -4202 -143 -360 -465 -1058 -508 -1103 -111 -117 -218
-56 -467 267 -164 214 -217 265 -385 368 -97 60 -214 110 -326 139 -104 27
-308 32 -409 11 -157 -34 -356 -117 -497 -207 -288 -186 -502 -485 -642 -896
-127 -374 -122 -808 15 -1229 38 -115 130 -310 191 -403 169 -259 414 -426
733 -500 123 -28 390 -30 515 -3 402 86 826 434 1100 902 151 258 704 1541
1020 2364 704 1835 1195 3771 1464 5770 160 1185 203 1766 177 2405 -18 451
-41 700 -82 900 -27 127 -49 172 -97 192 -33 14 -43 14 -92 1 -30 -9 -111 -40
-180 -70 -294 -130 -553 -191 -943 -224 -256 -21 -1147 -15 -1387 10 -301 31
-501 63 -830 132 -468 99 -702 170 -963 296 -154 74 -197 91 -245 94 -40 3
-66 -1 -89 -13z m194 -68 l41 -16 8 -127 c12 -188 9 -979 -4 -1192 -85 -1316
-301 -2473 -757 -4050 -302 -1045 -449 -1456 -867 -2420 -267 -618 -299 -684
-400 -833 -41 -61 -58 -75 -34 -30 23 45 386 879 484 1113 326 778 500 1277
723 2085 269 971 432 1681 583 2540 60 345 87 565 118 965 17 226 17 1109 0
1295 -22 245 -42 416 -63 549 -16 104 -17 131 -7 138 19 13 127 3 175 -17z
m-4072 -8380 c-38 -18 -63 -34 -54 -34 17 -1 69 -71 69 -94 0 -7 4 -17 9 -22
21 -24 36 -117 35 -220 0 -160 -40 -262 -138 -360 -48 -48 -62 -57 -129 -84
-72 -29 -196 2 -264 66 -64 61 -132 194 -119 230 12 30 -15 0 -55 -62 -45 -70
-65 -90 -28 -27 100 165 268 354 417 467 81 61 288 175 315 175 7 -1 -19 -16
-58 -35z m4545 -1224 c-41 -16 -74 -32 -73 -37 1 -5 18 -36 37 -69 20 -32 41
-75 47 -95 18 -55 20 -295 3 -341 -7 -22 -13 -42 -13 -44 1 -13 -36 -102 -48
-116 -7 -8 -13 -21 -13 -28 0 -11 -95 -110 -131 -136 -32 -24 -87 -40 -139
-39 -53 0 -120 20 -120 36 0 5 -5 8 -10 8 -30 0 -104 114 -128 197 -20 68 -27
199 -12 220 16 23 -25 -21 -68 -72 l-33 -40 30 45 c74 111 222 258 356 355
110 79 325 184 375 184 8 0 -19 -13 -60 -28z"/>
<path d="M5400 3060 c-8 -5 -10 -10 -5 -10 6 0 17 5 25 10 8 5 11 10 5 10 -5
0 -17 -5 -25 -10z"/>
</g>
</svg>
